{"title":"Ziegfeld Follies(1945)MPEG-4(720p)[DaScubaDude]","uid":13276052,"size":1160976056,"categoryP":"video","categoryS":"movies","magnet":"?xt=urn:btih:9b750d972500fe08f172b9ad3764bc2d95aba03a&amp;dn=Ziegfeld+Follies%281945%29MPEG-4%28720p%29%5BDaScubaDude%5D&amp;tr=udp%3A%2F%2Ftracker.leechers-paradise.org%3A6969&amp;tr=udp%3A%2F%2Fzer0day.ch%3A1337&amp;tr=udp%3A%2F%2Fopen.demonii.com%3A1337&amp;tr=udp%3A%2F%2Ftracker.coppersurfer.tk%3A6969&amp;tr=udp%3A%2F%2Fexodus.desync.com%3A6969","seeders":0,"leechers":1,"uploader":"dascuba","files":1,"time":1453440492,"description":"Ziegfeld Follies (1945)\r\nApproved  |  110 min  |  Comedy, Musical  |  8 April 1946 (USA)\r\n6.6 Your rating:   -/10   Ratings: 6.6/10 from 2,106 users   \r\nReviews: 45 user | 25 critic\r\nThe late, great impresario Florenz Ziegfeld looks down from heaven and ordains a new revue in his grand old style.\r\n\r\nDirectors: Lemuel Ayers, Roy Del Ruth, 5 more credits »\r\nWriters: David Freedman, Hugh Martin, 38 more credits »\r\nStars: William Powell, Judy Garland, Lucille Ball\r\n\r\nGeneral\r\nComplete name                            :Ziegfeld FolliesZIEGFELD_FOLLIES_Title1.mp4\r\nFormat                                   : MPEG-4\r\nFormat profile                           : Base Media\r\nCodec ID                                 : isom\r\nFile size                                : 1.08 GiB\r\nDuration                                 : 1h 57mn\r\nOverall bit rate                         : 1 318 Kbps\r\nMovie name                               : ZIEGFELD_FOLLIES\r\nGenre                                    : Musical\r\nWriting application                      : Lavf54.6.100\r\n\r\nVideo\r\nID                                       : 1\r\nFormat                                   : AVC\r\nFormat/Info                              : Advanced Video Codec\r\nFormat profile                           :   \r\nFormat settings, CABAC                   : No\r\nFormat settings, ReFrames                : 6 frames\r\nCodec ID                                 : avc1\r\nCodec ID/Info                            : Advanced Video Coding\r\nDuration                                 : 1h 57mn\r\nBit rate                                 : 1 183 Kbps\r\nWidth                                    : 720 pixels\r\nHeight                                   : 540 pixels\r\nDisplay aspect ratio                     : 4:3\r\nFrame rate mode                          : Constant\r\nFrame rate                               : 29.970 fps\r\nColor space                              : YUV\r\nChroma subsampling                       : 4:2:0\r\nBit depth                                : 8 bits\r\nScan type                                : Progressive\r\nBits/(Pixel*Frame)                       : 0.102\r\nStream size                              : 994 MiB (90%)\r\n\r\nAudio\r\nID                                       : 2\r\nFormat                                   : AAC\r\nFormat/Info                              : Advanced Audio Codec\r\nFormat profile                           : LC\r\nCodec ID                                 : 40\r\nDuration                                 : 1h 57mn\r\nBit rate mode                            : Constant\r\nBit rate                                 : 128 Kbps\r\nChannel(s)                               : 2 channels\r\nChannel positions                        : Front: L R\r\nSampling rate                            : 44.1 KHz\r\nCompression mode                         : Lossy\r\nStream size                              : 108 MiB (10%)","torrent":{"xt":"urn:btih:9b750d972500fe08f172b9ad3764bc2d95aba03a","amp;dn":"Ziegfeld+Follies%281945%29MPEG-4%28720p%29%5BDaScubaDude%5D","amp;tr":["udp%3A%2F%2Ftracker.leechers-paradise.org%3A6969","udp%3A%2F%2Fzer0day.ch%3A1337","udp%3A%2F%2Fopen.demonii.com%3A1337","udp%3A%2F%2Ftracker.coppersurfer.tk%3A6969","udp%3A%2F%2Fexodus.desync.com%3A6969"],"infoHash":"9b750d972500fe08f172b9ad3764bc2d95aba03a","infoHashBuffer":{"type":"Buffer","data":[155,117,13,151,37,0,254,8,241,114,185,173,55,100,188,45,149,171,160,58]},"announce":[],"urlList":[]}}